<?xml version="1.0" standalone="no"?>
<!DOCTYPE svg PUBLIC "-//W3C//DTD SVG 20010904//EN"
 "http://www.w3.org/TR/2001/REC-SVG-20010904/DTD/svg10.dtd">
<svg version="1.0" xmlns="http://www.w3.org/2000/svg"
 width="175.000000pt" height="200.000000pt" viewBox="0 0 175.000000 200.000000"
 preserveAspectRatio="xMidYMid meet">

<g transform="translate(0.000000,200.000000) scale(0.100000,-0.100000)"
fill="#000000" stroke="none">
<path d="M1355 1403 c-192 -233 -355 -429 -361 -434 -9 -7 -110 81 -371 324
-197 184 -359 333 -361 332 -3 -3 -20 -1598 -17 -1603 1 -1 35 2 75 9 62 9 77
16 99 41 43 51 45 58 22 74 -21 15 -20 17 50 99 68 81 70 85 67 131 l-3 47
-83 -97 -82 -98 0 532 0 533 42 -39 c24 -22 146 -134 272 -249 125 -116 231
-211 235 -213 3 -1 134 153 291 343 201 243 289 342 300 338 8 -3 22 -7 30
-10 10 -3 40 24 83 76 l68 81 -3 104 -3 104 -350 -425z"/>
<path d="M1623 1187 c-724 -866 -943 -1130 -940 -1133 1 -2 45 3 97 11 79 12
97 18 114 40 222 275 693 844 699 844 4 1 7 -127 7 -284 0 -157 -2 -285 -4
-285 -3 0 -48 38 -102 85 l-96 84 -44 -56 c-42 -54 -44 -58 -27 -74 10 -9 73
-69 141 -133 l123 -118 52 7 c29 3 59 8 68 11 14 4 16 64 22 567 3 309 4 563
3 564 -1 1 -52 -57 -113 -130z"/>
</g>
</svg>
