<?xml version="1.0" encoding="iso-8859-1"?>
<!-- Generator: Adobe Illustrator 25.2.3, SVG Export Plug-In . SVG Version: 6.00 Build 0)  -->
<svg version="1.1" id="Layer_1" xmlns="http://www.w3.org/2000/svg" xmlns:xlink="http://www.w3.org/1999/xlink" x="0px" y="0px"
	 viewBox="0 0 50 50" style="enable-background:new 0 0 50 50;" xml:space="preserve">
<g>
	<path d="M46.11,24.192c-0.412,0-0.802,0.082-1.174,0.202c0.448-0.367,0.739-0.918,0.739-1.543v-2.513
		c0-1.093-0.875-1.984-1.967-2.003l-1.182-0.021c-0.012,0-0.023,0-0.035,0c-0.415,0-0.818,0.061-1.197,0.177
		c-0.239-0.101-0.501-0.156-0.776-0.156h-2.689l-1.148-0.02c0,0-0.001,0-0.001,0c-0.426,0-0.837,0.062-1.224,0.179
		c-0.24-0.102-0.505-0.159-0.783-0.159h-3.012c-0.801,0-1.488,0.474-1.808,1.155c-1.026-0.685-2.257-1.087-3.581-1.087h-0.367
		c-0.921,0-1.796,0.197-2.59,0.545c-0.337-0.26-0.755-0.421-1.214-0.421h-0.005h-3.011c-0.652,0-1.247,0.315-1.616,0.821
		c-0.37-0.505-0.964-0.821-1.616-0.821h-3.012c-0.027,0-0.053,0.009-0.081,0.01c-0.033-0.002-0.064-0.01-0.097-0.01h-1.009v-2.105
		c0-1.106-0.896-2.003-2.002-2.003H7.042c-2.508,0-4.613,1.761-5.145,4.112c-1.054,0.058-1.891,0.931-1.891,2v2.438
		c0,1.025,0.769,1.87,1.761,1.989v4.771c0,1.106,0.896,2.003,2.002,2.003H6.78c0.563,0,1.072-0.233,1.436-0.608
		c0.364,0.375,0.873,0.608,1.436,0.608h3.012c0.746,0,1.389-0.413,1.733-1.018c0.352,0.613,0.991,1.018,1.716,1.018h0.175h2.36
		h0.175c0.847,0,1.602-0.533,1.886-1.332L21,29.591c1.187,1.384,2.944,2.265,4.906,2.265h0.815c1.248,0,2.424-0.38,3.402-1.05
		c0.367,0.445,0.916,0.735,1.538,0.735h3.012c0.553,0,1.054-0.225,1.417-0.588c0.362,0.363,0.863,0.588,1.417,0.588h3.012
		c1.106,0,2.002-0.897,2.002-2.003v-0.026c0.574,1.425,1.964,2.435,3.59,2.435c2.137,0,3.875-1.739,3.875-3.877
		S48.246,24.192,46.11,24.192z M12.665,22.969v6.76H9.653v-6.76H6.78v6.76H3.769v-6.76H2.008v-2.438h1.761v-0.834
		c0-1.809,1.465-3.275,3.273-3.275h2.611v2.523H7.752c-0.537,0-0.972,0.435-0.972,0.972v0.613h2.873h3.012V22.969z M18.826,29.729
		H18.65h-2.36h-0.175l-3.272-9.198h3.012l1.616,5.316l1.616-5.316h3.011L18.826,29.729z M30.741,25.828h-2.987h-3.398
		c0,0.058,0.003,0.115,0.01,0.171v0.005h0.001c0.087,0.776,0.75,1.462,2.001,1.462c1.108,0,1.426-0.911,1.426-0.911l2.657,0.776
		c-0.594,1.477-2.04,2.521-3.729,2.521h-0.815c-2.467,0-4.467-2.001-4.467-4.47v-0.505c0-2.469,2-4.47,4.467-4.47h0.367
		c2.467,0,4.467,2.001,4.469,4.47V25.828z M43.672,22.851h-1.496c-0.916,0-1.659,0.743-1.659,1.66v3.053v1.972h-3.012v-6.686h-1.174
		c-0.916,0-1.659,0.743-1.659,1.66v3.053v1.972h-3.012v-9.198h3.012v1.418c0.271-0.774,0.962-1.439,1.973-1.439l1.182,0.021h2.689
		v1.418c0.272-0.774,0.962-1.44,1.973-1.44l1.182,0.021V22.851z M46.11,29.942c-1.034,0-1.872-0.839-1.872-1.874
		c0-1.035,0.838-1.874,1.872-1.874c1.034,0,1.873,0.839,1.873,1.874C47.982,29.104,47.144,29.942,46.11,29.942z"/>
	<path d="M26.198,22.568h-0.287c-0.836,0-1.515,0.66-1.552,1.487h3.391C27.714,23.228,27.034,22.568,26.198,22.568z"/>
</g>
</svg>