<?xml version="1.0" encoding="iso-8859-1"?>
<!-- Generator: Adobe Illustrator 25.2.3, SVG Export Plug-In . SVG Version: 6.00 Build 0)  -->
<svg version="1.1" id="Layer_1" xmlns="http://www.w3.org/2000/svg" xmlns:xlink="http://www.w3.org/1999/xlink" x="0px" y="0px"
	 viewBox="0 0 50 50" style="enable-background:new 0 0 50 50;" xml:space="preserve">
<g>
	<path d="M41.86,21.321v-1.539h-2.919l-1.283-0.022c-1.097,0-1.847,0.722-2.141,1.561v-1.539h-3.269v9.979h3.269v-2.14v-3.312
		c0-0.995,0.806-1.801,1.801-1.801h1.274v7.253h3.269v-2.14v-3.312c0-0.995,0.806-1.801,1.801-1.801h1.623v-2.726l-1.283-0.022
		C42.905,19.759,42.156,20.482,41.86,21.321z"/>
	<polygon points="18.597,19.991 16.843,25.758 15.089,19.991 11.82,19.991 15.371,29.97 15.562,29.97 18.124,29.97 18.315,29.97 
		21.866,19.991 	"/>
	<path d="M5.239,19.991v-0.665c0-0.583,0.472-1.055,1.055-1.055h2.064v-2.737H5.523c-1.962,0-3.553,1.591-3.553,3.553v0.905H0.059
		v2.645h1.911v7.334H5.24v-7.334h3.118v7.334h3.269v-7.334v-2.645H8.358H5.239z"/>
	<path d="M26.398,19.857H26c-2.678,0-4.849,2.171-4.849,4.849v0.548c0,2.678,2.171,4.849,4.849,4.849h0.885
		c1.834,0,3.403-1.132,4.048-2.735l-2.884-0.842c0,0-0.345,0.988-1.548,0.988c-1.358,0-2.077-0.744-2.172-1.586h-0.001v-0.005
		c-0.007-0.061-0.01-0.123-0.01-0.185h3.688h3.242v-1.032C31.248,22.028,29.077,19.857,26.398,19.857z M24.322,23.814
		c0.039-0.897,0.777-1.613,1.684-1.613h0.312c0.907,0,1.645,0.716,1.684,1.613H24.322z"/>
	<path d="M47.932,26.136c-1.123,0-2.033,0.91-2.033,2.033s0.91,2.033,2.033,2.033c1.123,0,2.033-0.91,2.033-2.033
		C49.964,27.046,49.055,26.136,47.932,26.136z"/>
</g>
</svg>